<svg width="24" height="24" viewBox="0 0 24 24" fill="none" xmlns="http://www.w3.org/2000/svg">
<path opacity="0.3" d="M17 2C19.7614 2 22 4.23858 22 7V17C22 19.7614 19.7614 22 17 22H7C4.23858 22 2 19.7614 2 17V7C2 4.23858 4.23858 2 7 2H17Z" fill="#2B3F6C"/>
<path d="M14.8376 12.1624C15.4958 11.5042 16.5473 11.4563 17.2625 12.0521L21.9099 15.9251C21.9414 15.9513 21.9718 15.9793 21.9998 16.0091V17.0003C21.9996 19.7616 19.7611 22.0003 16.9998 22.0003H6.99976C4.55083 22.0002 2.51443 20.2389 2.08472 17.9144L2.44116 17.5589C2.48011 17.5199 2.52232 17.4835 2.56714 17.4515L4.75952 15.886C5.4755 15.3749 6.45578 15.4563 7.07788 16.0784L8.15112 17.1517C8.61969 17.6202 9.37975 17.6201 9.84839 17.1517L14.8376 12.1624Z" fill="#2B3F6C"/>
<circle cx="2" cy="2" r="2" transform="matrix(-1 0 0 1 10 6)" fill="#2B3F6C"/>
</svg>
