<svg width="24" height="24" viewBox="0 0 24 24" fill="none" xmlns="http://www.w3.org/2000/svg">
<path d="M5.5 11.9998C5.5 10.4351 6.76849 9.16667 8.33333 9.16667H11.1667V14.8332H8.33333C6.76852 14.8332 5.5 13.5646 5.5 11.9998Z" fill="#2B3F6C"/>
<path d="M8.33333 8.16667H11.1667V2.5H8.33333C6.76853 2.5 5.5 3.76853 5.5 5.33333C5.5 6.89814 6.76852 8.16667 8.33333 8.16667Z" fill="#2B3F6C"/>
<path d="M17.8333 5.33333C17.8333 6.89814 16.5648 8.16667 15 8.16667H12.1667V2.5H15C16.5648 2.5 17.8333 3.76853 17.8333 5.33333Z" fill="#2B3F6C"/>
<path d="M8.33333 15.8332H11.1667V18.6668C11.1667 20.2316 9.89814 21.5002 8.33333 21.5002C6.76853 21.5002 5.5 20.2316 5.5 18.6668C5.5 17.102 6.76859 15.8332 8.33333 15.8332Z" fill="#2B3F6C"/>
<path opacity="0.3" d="M12.1665 11.9997C12.1665 10.4349 13.435 9.1665 14.9998 9.1665C16.5647 9.1665 17.8332 10.4349 17.8332 11.9997C17.8332 13.5645 16.5646 14.833 14.9998 14.833C13.435 14.833 12.1665 13.5645 12.1665 11.9997Z" fill="#2B3F6C"/>
</svg>
