<svg width="24" height="24" viewBox="0 0 24 24" fill="none" xmlns="http://www.w3.org/2000/svg">
<rect x="4" y="9" width="16" height="12" rx="4" stroke="#2B3F6C" stroke-width="1.5"/>
<path d="M16 8.25C18.6233 8.25 20.75 10.3766 20.75 13V17C20.75 19.6234 18.6233 21.75 16 21.75H7.99999C5.37664 21.75 3.24999 19.6234 3.24999 17V13C3.24999 10.3766 5.37664 8.25 7.99999 8.25H16ZM14.6514 12.4697C14.3585 12.1768 13.8837 12.1768 13.5908 12.4697L12.1211 13.9395L10.6514 12.4697L10.5947 12.418C10.3001 12.1777 9.86541 12.1951 9.59081 12.4697C9.31622 12.7443 9.29878 13.1791 9.53905 13.4736L9.59081 13.5303L11.0605 15L9.59081 16.4697L9.53905 16.5264C9.29878 16.8209 9.31622 17.2557 9.59081 17.5303C9.86541 17.8049 10.3001 17.8223 10.5947 17.582L10.6514 17.5303L12.1211 16.0605L13.5908 17.5303C13.8837 17.8232 14.3585 17.8232 14.6514 17.5303C14.9443 17.2374 14.9443 16.7626 14.6514 16.4697L13.1816 15L14.6514 13.5303C14.9443 13.2374 14.9443 12.7626 14.6514 12.4697Z" fill="#2B3F6C"/>
<path opacity="0.3" d="M16 9V7C16 4.79086 14.2091 3 12 3V3C9.79086 3 8 4.79086 8 7L8 9" stroke="#2B3F6C" stroke-width="1.5"/>
</svg>
