<svg width="24" height="24" viewBox="0 0 24 24" fill="none" xmlns="http://www.w3.org/2000/svg">
<path d="M5.00002 5.06048C5.00002 5.0148 5.02348 4.85193 5.33435 4.58943C5.64114 4.33039 6.13742 4.05732 6.82796 3.8107C8.20136 3.3202 10.1568 3 12.3589 3C14.561 3 16.5164 3.3202 17.8898 3.8107C18.5804 4.05732 19.0766 4.33039 19.3834 4.58943C19.6943 4.85193 19.7178 5.0148 19.7178 5.06048C19.7178 5.10616 19.6943 5.26904 19.3834 5.53154C19.0766 5.79058 18.5804 6.06365 17.8898 6.31027C16.5164 6.80077 14.561 7.12097 12.3589 7.12097C10.1568 7.12097 8.20136 6.80077 6.82796 6.31027C6.13742 6.06365 5.64114 5.79058 5.33435 5.53154C5.02348 5.26904 5.00002 5.10616 5.00002 5.06048Z" fill="#2B3F6C"/>
<path d="M18.4838 12.6832C18.7919 12.5732 19.0866 12.452 19.3627 12.3192C19.5244 12.2415 19.7178 12.3563 19.7178 12.5357V14.4798C19.7178 14.5255 19.6943 14.6884 19.3834 14.9509C19.0766 15.2099 18.5804 15.483 17.8898 15.7296C16.5164 16.2201 14.561 16.5403 12.3589 16.5403C10.1568 16.5403 8.20136 16.2201 6.82796 15.7296C6.13742 15.483 5.64114 15.2099 5.33435 14.9509C5.02348 14.6884 5.00002 14.5255 5.00002 14.4798V12.5357C5.00002 12.3563 5.1934 12.2415 5.35508 12.3192C5.63116 12.452 5.92588 12.5732 6.23395 12.6832C7.84355 13.258 10.0091 13.5968 12.3589 13.5968C14.7087 13.5968 16.8742 13.258 18.4838 12.6832Z" fill="#2B3F6C"/>
<g opacity="0.3">
<path d="M18.4838 7.9733C18.7919 7.86327 19.0866 7.74213 19.3627 7.60935C19.5244 7.5316 19.7178 7.6464 19.7178 7.8258V9.76995C19.7178 9.81563 19.6943 9.97851 19.3834 10.241C19.0766 10.5 18.5804 10.7731 17.8898 11.0197C16.5164 11.5102 14.561 11.8304 12.3589 11.8304C10.1568 11.8304 8.20136 11.5102 6.82796 11.0197C6.13742 10.7731 5.64114 10.5 5.33435 10.241C5.02348 9.97851 5.00002 9.81563 5.00002 9.76995V7.8258C5.00002 7.6464 5.1934 7.5316 5.35508 7.60935C5.63116 7.74213 5.92588 7.86327 6.23395 7.9733C7.84355 8.54815 10.0091 8.88689 12.3589 8.88689C14.7087 8.88689 16.8742 8.54815 18.4838 7.9733Z" fill="#2B3F6C"/>
<path d="M18.4838 17.3927C18.7919 17.2826 19.0866 17.1615 19.3627 17.0287C19.5244 16.951 19.7178 17.0658 19.7178 17.2452V19.1893C19.7178 19.235 19.6943 19.3979 19.3834 19.6604C19.0766 19.9194 18.5804 20.1925 17.8898 20.4391C16.5164 20.9296 14.561 21.2498 12.3589 21.2498C10.1568 21.2498 8.20136 20.9296 6.82796 20.4391C6.13742 20.1925 5.64114 19.9194 5.33435 19.6604C5.02348 19.3979 5.00002 19.235 5.00002 19.1893V17.2452C5.00002 17.0658 5.1934 16.951 5.35508 17.0287C5.63116 17.1615 5.92588 17.2826 6.23395 17.3927C7.84355 17.9675 10.0091 18.3062 12.3589 18.3062C14.7087 18.3062 16.8742 17.9675 18.4838 17.3927Z" fill="#2B3F6C"/>
</g>
</svg>
