<svg width="24" height="24" viewBox="0 0 24 24" fill="none" xmlns="http://www.w3.org/2000/svg">
<path opacity="0.3" d="M15.75 18.3821V14.1943L8.25 18.5693V20.3821C8.25 21.683 9.61905 22.5291 10.7826 21.9473L14.7826 19.9473C15.3755 19.6509 15.75 19.0449 15.75 18.3821Z" fill="#2B3F6C"/>
<path d="M20 1.25C21.5188 1.25 22.75 2.48122 22.75 4V4.81738C22.75 5.76723 22.3893 6.68159 21.7412 7.37598L16.0859 13.4355C15.8701 13.6669 15.7501 13.9716 15.75 14.2881V14.1943L8.25 18.5693V14.2881C8.24994 13.9716 8.12993 13.6669 7.91406 13.4355L2.25879 7.37598C1.61069 6.68159 1.25 5.76723 1.25 4.81738V4C1.25 2.48122 2.48122 1.25 4 1.25H20Z" fill="#2B3F6C"/>
</svg>
