<svg width="24" height="24" viewBox="0 0 24 24" fill="none" xmlns="http://www.w3.org/2000/svg">
<path opacity="0.3" fill-rule="evenodd" clip-rule="evenodd" d="M13.5745 2.23621C14.1697 1.98986 15.055 1.64707 15.9344 1.9931C16.0556 2.04079 16.1757 2.09062 16.2947 2.14254C17.1603 2.52014 17.5437 3.3879 17.7904 3.98274C17.8345 4.08908 17.8748 4.18902 17.9133 4.28449C17.9993 4.498 18.0764 4.68923 18.1671 4.87955C18.2938 5.14514 18.4137 5.332 18.5406 5.45888C18.6675 5.58575 18.8543 5.70565 19.1199 5.83232C19.3103 5.92311 19.5015 6.00013 19.715 6.08616C19.8104 6.1246 19.9105 6.16491 20.0168 6.20898C20.6117 6.45566 21.4795 6.83907 21.8571 7.70462C21.9091 7.8238 21.959 7.94411 22.0068 8.0655C22.3528 8.94491 22.01 9.83015 21.7637 10.4254C21.7197 10.5318 21.6774 10.6309 21.6371 10.7257C21.5469 10.9374 21.466 11.1274 21.3956 11.3262C21.2972 11.6036 21.2498 11.8206 21.2498 12.0001C21.2498 12.1795 21.2972 12.3965 21.3956 12.674C21.466 12.8728 21.5467 13.0623 21.6369 13.2741C21.6773 13.3688 21.7197 13.4684 21.7637 13.5748C22.01 14.17 22.3528 15.0552 22.0068 15.9346C21.9592 16.0557 21.9094 16.1757 21.8576 16.2946C21.4799 17.1602 20.612 17.5437 20.017 17.7904C19.9108 17.8344 19.811 17.8746 19.7156 17.913C19.502 17.9991 19.3104 18.0763 19.12 18.1671C18.8544 18.2937 18.6675 18.4137 18.5406 18.5405C18.4137 18.6674 18.2938 18.8543 18.1671 19.12C18.0764 19.3103 17.9994 19.5014 17.9134 19.7149C17.8749 19.8104 17.8345 19.9106 17.7904 20.017C17.5438 20.612 17.1603 21.48 16.2946 21.8576C16.1757 21.9095 16.0556 21.9593 15.9344 22.007C15.055 22.353 14.1698 22.0103 13.5746 21.7639C13.4681 21.7198 13.3689 21.6776 13.2741 21.6372C13.0623 21.547 12.8725 21.4662 12.6738 21.3958C12.3963 21.2975 12.1793 21.2501 11.9999 21.2501C11.8204 21.2501 11.6034 21.2975 11.326 21.3958C11.1272 21.4662 10.9377 21.5469 10.7261 21.637C10.6312 21.6774 10.5317 21.7198 10.4252 21.7639C9.82995 22.0103 8.94471 22.3531 8.0653 22.007C7.9441 21.9593 7.82398 21.9095 7.70499 21.8576C6.83935 21.48 6.45592 20.6121 6.20923 20.0171C6.16513 19.9108 6.12487 19.8108 6.0864 19.7153C6.00037 19.5018 5.92335 19.3106 5.83256 19.1202C5.70588 18.8546 5.58598 18.6677 5.4591 18.5408C5.33222 18.4139 5.14533 18.294 4.87971 18.1673C4.68939 18.0766 4.49825 17.9996 4.28475 17.9136C4.18943 17.8752 4.08892 17.8347 3.98276 17.7907C3.38784 17.544 2.51993 17.1605 2.14229 16.2949C2.09039 16.1759 2.04057 16.0558 1.99289 15.9346C1.64686 15.0552 1.98965 14.17 2.236 13.5748C2.28008 13.4683 2.32234 13.369 2.36271 13.2742C2.4529 13.0625 2.53369 12.8727 2.60413 12.674C2.70245 12.3965 2.74985 12.1795 2.74985 12.0001C2.74985 11.8206 2.70245 11.6036 2.60413 11.3261C2.53369 11.1274 2.45295 10.9378 2.36277 10.726C2.32238 10.6312 2.2801 10.5319 2.236 10.4254C1.98965 9.83014 1.64686 8.9449 1.99289 8.06549C2.04061 7.9442 2.09047 7.824 2.14243 7.70492C2.52008 6.83933 3.38794 6.45591 3.98284 6.20922C4.08916 6.16513 4.18909 6.12487 4.28455 6.08642C4.49811 6.00039 4.68938 5.92334 4.87974 5.83255C5.14535 5.70588 5.33223 5.58598 5.4591 5.4591C5.58598 5.33222 5.70589 5.14535 5.83256 4.87974C5.92334 4.6894 6.00036 4.49823 6.08639 4.28468C6.12485 4.1892 6.16513 4.08922 6.20924 3.98286C6.45594 3.38798 6.83938 2.52015 7.70497 2.14253C7.82396 2.09062 7.94407 2.04079 8.06527 1.99311C8.94468 1.64708 9.82992 1.98987 10.4251 2.23622C10.5317 2.28032 10.631 2.3226 10.7258 2.36298C10.9376 2.45317 11.1271 2.53391 11.3259 2.60434C11.6034 2.70267 11.8204 2.75006 11.9998 2.75006C12.1793 2.75006 12.3963 2.70267 12.6737 2.60434C12.8725 2.53391 13.0621 2.45317 13.2739 2.36298C13.3687 2.3226 13.468 2.28031 13.5745 2.23621ZM9.2387 10.3578C9.54782 10.6669 10.049 10.6669 10.3581 10.3578C10.6672 10.0487 10.6672 9.54754 10.3581 9.23843C10.049 8.92931 9.54782 8.92931 9.2387 9.23843C8.92959 9.54754 8.92959 10.0487 9.2387 10.3578ZM13.6417 14.7608C13.9508 15.0699 14.452 15.0699 14.7611 14.7608C15.0702 14.4516 15.0702 13.9505 14.7611 13.6414C14.452 13.3322 13.9508 13.3322 13.6417 13.6414C13.3326 13.9505 13.3326 14.4516 13.6417 14.7608ZM14.769 9.23032C15.0619 9.52321 15.0619 9.99809 14.769 10.291L10.2914 14.7686C9.99852 15.0615 9.52365 15.0615 9.23076 14.7686C8.93786 14.4757 8.93786 14.0008 9.23076 13.7079L13.7084 9.23032C14.0013 8.93743 14.4761 8.93743 14.769 9.23032Z" fill="#2B3F6C"/>
<path d="M9.2387 10.3578C9.54782 10.6669 10.049 10.6669 10.3581 10.3578C10.6672 10.0487 10.6672 9.54754 10.3581 9.23843C10.049 8.92931 9.54782 8.92931 9.2387 9.23843C8.92959 9.54754 8.92959 10.0487 9.2387 10.3578Z" fill="#2B3F6C"/>
<path d="M13.6417 14.7608C13.9508 15.0699 14.452 15.0699 14.7611 14.7608C15.0702 14.4516 15.0702 13.9505 14.7611 13.6414C14.452 13.3322 13.9508 13.3322 13.6417 13.6414C13.3326 13.9505 13.3326 14.4516 13.6417 14.7608Z" fill="#2B3F6C"/>
<path d="M14.769 9.23032C15.0619 9.52321 15.0619 9.99809 14.769 10.291L10.2914 14.7686C9.99852 15.0615 9.52365 15.0615 9.23076 14.7686C8.93786 14.4757 8.93786 14.0008 9.23076 13.7079L13.7084 9.23032C14.0013 8.93743 14.4761 8.93743 14.769 9.23032Z" fill="#2B3F6C"/>
</svg>
