<svg width="24" height="24" viewBox="0 0 24 24" fill="none" xmlns="http://www.w3.org/2000/svg">
<path opacity="0.3" d="M17 1.25C20.1756 1.25 22.75 3.82436 22.75 7V17C22.75 20.1756 20.1756 22.75 17 22.75H7C3.82436 22.75 1.25 20.1756 1.25 17V7C1.25 3.82436 3.82436 1.25 7 1.25H17ZM17.5 9.75C17.1118 9.75 16.7925 10.0449 16.7539 10.4229L16.75 10.5V11.75H15.75V10.5L15.7461 10.4229C15.7075 10.0449 15.3882 9.75 15 9.75C14.6118 9.75 14.2925 10.0449 14.2539 10.4229L14.25 10.5V11.75H11.1436C10.8168 10.5961 9.7585 9.75 8.5 9.75C6.98122 9.75 5.75 10.9812 5.75 12.5C5.75 14.0188 6.98122 15.25 8.5 15.25C9.7585 15.25 10.8168 14.4039 11.1436 13.25H17.5C17.5618 13.25 17.6212 13.2397 17.6787 13.2256C17.7045 13.2193 17.7292 13.2111 17.7539 13.2021C17.7748 13.1946 17.7954 13.1871 17.8154 13.1777C17.8395 13.1665 17.8621 13.1533 17.8848 13.1396C17.9013 13.1297 17.918 13.1205 17.9336 13.1094C17.9569 13.0928 17.9778 13.0738 17.999 13.0547C18.0128 13.0423 18.0272 13.0309 18.04 13.0176C18.06 12.9968 18.0773 12.9741 18.0947 12.9512C18.1059 12.9365 18.1179 12.9227 18.1279 12.9072C18.1433 12.8836 18.1553 12.8583 18.168 12.833C18.1763 12.8163 18.1863 12.8005 18.1934 12.7832C18.2056 12.7534 18.2134 12.7221 18.2217 12.6904C18.2378 12.6293 18.25 12.5661 18.25 12.5V10.5L18.2461 10.4229C18.2075 10.0449 17.8882 9.75 17.5 9.75ZM8.5 11.25C9.19036 11.25 9.75 11.8096 9.75 12.5C9.75 13.1904 9.19036 13.75 8.5 13.75C7.80964 13.75 7.25 13.1904 7.25 12.5C7.25 11.8096 7.80964 11.25 8.5 11.25Z" fill="#2B3F6C"/>
<path d="M17.5 12.5L10.5 12.5" stroke="#2B3F6C" stroke-width="1.5" stroke-linecap="round" stroke-linejoin="round"/>
<path d="M17.5 10.5L17.5 12.5" stroke="#2B3F6C" stroke-width="1.5" stroke-linecap="round" stroke-linejoin="round"/>
<path d="M15 10.5L15 12.5" stroke="#2B3F6C" stroke-width="1.5" stroke-linecap="round" stroke-linejoin="round"/>
<circle cx="2" cy="2" r="2" transform="matrix(-1 0 0 1 10.5 10.5)" stroke="#2B3F6C" stroke-width="1.5"/>
</svg>
