<svg width="24" height="24" viewBox="0 0 24 24" fill="none" xmlns="http://www.w3.org/2000/svg">
<path opacity="0.3" d="M12 1.25C17.9371 1.25 22.75 6.06294 22.75 12C22.75 17.9371 17.9371 22.75 12 22.75C10.1131 22.75 8.3379 22.2627 6.79492 21.4072C6.70065 21.355 6.60844 21.3529 6.54297 21.376L4.02051 22.2676C2.47492 22.8137 0.986079 21.3249 1.53223 19.7793L2.45996 17.1523C2.48224 17.0893 2.48096 17.0013 2.43359 16.9092C1.67659 15.4368 1.25 13.7671 1.25 12C1.25 6.06294 6.06294 1.25 12 1.25Z" fill="#2B3F6C"/>
<circle cx="7.0498" cy="12.0498" r="1.25" fill="#2B3F6C"/>
<circle cx="12.0498" cy="12.0498" r="1.25" fill="#2B3F6C"/>
<circle cx="17.0498" cy="12.0498" r="1.25" fill="#2B3F6C"/>
</svg>
