<svg width="24" height="24" viewBox="0 0 24 24" fill="none" xmlns="http://www.w3.org/2000/svg">
<path d="M9 2C10.6569 2 12 3.34315 12 5V19C12 20.6569 10.6569 22 9 22H5C3.34315 22 2 20.6569 2 19V5C2 3.34315 3.34315 2 5 2H9ZM7 17C6.44772 17 6 17.4477 6 18C6 18.5523 6.44772 19 7 19C7.55228 19 8 18.5523 8 18C8 17.4477 7.55228 17 7 17Z" fill="#2B3F6C"/>
<path opacity="0.3" d="M13.5 15.6597C13.5 15.9965 13.8908 16.1826 14.1522 15.9702L20.0347 11.1918C21.2332 10.0251 21.2461 8.10359 20.0634 6.92086L17.2219 4.07936C16.4882 3.34566 15.4672 3.07049 14.5181 3.25743C13.8451 3.39001 13.5 4.0786 13.5 4.76463V15.6597Z" fill="#2B3F6C"/>
<path opacity="0.3" d="M13.8695 18.1323C13.6357 18.3222 13.5 18.6073 13.5 18.9085V21C13.5 21.5523 13.9477 22 14.5 22H19C20.6569 22 22 20.6569 22 19V14.2026C22 13.4249 21.597 12.7414 20.9884 12.3495L13.8695 18.1323Z" fill="#2B3F6C"/>
</svg>
