<svg width="24" height="24" viewBox="0 0 24 24" fill="none" xmlns="http://www.w3.org/2000/svg">
<rect opacity="0.3" x="1.99987" y="1.99988" width="20" height="20" rx="10" fill="#2B3F6C"/>
<path d="M11.9997 1.99976C12.2521 1.99976 12.5021 2.01166 12.7497 2.03003V11.2498H15.279C15.4647 8.55792 16.6386 6.13795 18.4431 4.35425C18.8257 4.67701 19.1831 5.02812 19.5134 5.40405C17.9736 6.91873 16.966 8.96757 16.7829 11.2498H21.9685C21.9869 11.4974 21.9997 11.7474 21.9997 11.9998C21.9997 12.2521 21.9869 12.5021 21.9685 12.7498H16.7829C16.966 15.0316 17.974 17.079 19.5134 18.5935C19.183 18.9697 18.8259 19.3213 18.4431 19.6443C16.6389 17.8607 15.4647 15.4413 15.279 12.7498H12.7497V21.9685C12.5021 21.9869 12.2521 21.9998 11.9997 21.9998C11.7474 21.9998 11.4974 21.9869 11.2497 21.9685V12.7498H8.71947C8.52924 15.4065 7.34013 17.7911 5.51927 19.5408L4.48021 18.4587C6.02101 16.9781 7.0289 14.9775 7.21556 12.7498H2.03099C2.01262 12.5021 1.99974 12.2521 1.99974 11.9998C1.99974 11.7474 2.01262 11.4974 2.03099 11.2498H7.21556C7.0289 9.02205 6.02101 7.02141 4.48021 5.54077L5.51927 4.45874C7.34013 6.2084 8.52924 8.59301 8.71947 11.2498H11.2497V2.03003C11.4974 2.01166 11.7474 1.99976 11.9997 1.99976Z" fill="#2B3F6C"/>
</svg>
