<svg width="24" height="24" viewBox="0 0 24 24" fill="none" xmlns="http://www.w3.org/2000/svg">
<path opacity="0.3" d="M1.26445 2.85343C1.3457 2.44729 1.74111 2.18333 2.14726 2.26456L3.19609 2.47452C4.38128 2.71158 5.27304 3.69472 5.39335 4.89738L5.47832 5.74992H19.0545C21.0385 5.75015 22.4947 7.6151 22.0135 9.53995L20.8904 14.0312C20.4174 15.9229 18.7174 17.2498 16.7674 17.2499H7.77421C6.3823 17.2499 5.20974 16.21 5.04375 14.828L4.05449 6.58195L3.90117 5.04679C3.84649 4.50013 3.44086 4.05299 2.90214 3.94523L1.85332 3.73527C1.4473 3.65406 1.1835 3.25944 1.26445 2.85343Z" fill="#2B3F6C"/>
<path d="M12.9998 13.4999H8.99985" stroke="#2B3F6C" stroke-width="1.5" stroke-linecap="round" stroke-linejoin="round"/>
<circle cx="8.5" cy="20" r="1.5" fill="#2B3F6C"/>
<circle cx="17.5" cy="20" r="1.5" fill="#2B3F6C"/>
</svg>
