<svg width="24" height="24" viewBox="0 0 24 24" fill="none" xmlns="http://www.w3.org/2000/svg">
<path opacity="0.3" d="M16.75 1C19.9256 1 22.5 3.57436 22.5 6.75V16.75C22.5 19.9256 19.9256 22.5 16.75 22.5H6.75C3.57436 22.5 1 19.9256 1 16.75V6.75C1 3.57436 3.57436 1 6.75 1H16.75Z" fill="#2B3F6C"/>
<path fill-rule="evenodd" clip-rule="evenodd" d="M14.9684 6.82995C14.5389 6.40044 13.8427 6.4007 13.4135 6.83054L12.268 7.97787L15.5466 11.2565L16.6876 10.0858C17.108 9.65453 17.1035 8.96512 16.6777 8.53927L14.9684 6.82995ZM14.9713 11.8468L11.6856 8.56112L7.56174 12.6912C7.26969 12.9837 7.098 13.3752 7.08062 13.7884L7.00075 15.6873C6.98102 16.1562 7.35556 16.5472 7.82455 16.5472L9.69471 16.5473C10.1392 16.5473 10.5649 16.3677 10.8753 16.0492L14.9713 11.8468Z" fill="#2B3F6C"/>
</svg>
