<svg width="24" height="24" viewBox="0 0 24 24" fill="none" xmlns="http://www.w3.org/2000/svg">
<path opacity="0.3" d="M7 1.25C3.82436 1.25 1.25 3.82436 1.25 7V17C1.25 20.1756 3.82436 22.75 7 22.75H17C20.1756 22.75 22.75 20.1756 22.75 17V7C22.75 3.82436 20.1756 1.25 17 1.25H7Z" fill="#2B3F6C"/>
<path d="M14 16.25C14.4142 16.25 14.75 16.5858 14.75 17C14.75 17.4142 14.4142 17.75 14 17.75H10C9.58579 17.75 9.25 17.4142 9.25 17C9.25 16.5858 9.58579 16.25 10 16.25H14ZM15.75 1.25V9C15.75 9.24108 15.6341 9.46743 15.4385 9.6084C15.2429 9.74935 14.9914 9.78815 14.7627 9.71191L12 8.79102L9.2373 9.71191C9.0086 9.78815 8.7571 9.74935 8.56152 9.6084C8.36595 9.46743 8.25 9.24108 8.25 9V1.25H15.75Z" fill="#2B3F6C"/>
</svg>
