<svg width="24" height="24" viewBox="0 0 24 24" fill="none" xmlns="http://www.w3.org/2000/svg">
<path opacity="0.3" d="M11.4443 6C13.835 6 15.905 7.3728 16.9092 9.37305C16.9111 9.3769 16.9157 9.37952 16.9199 9.37891C19.5452 9.00301 21.9997 11.1047 22 13.7773C22 16.0819 20.2459 17.9772 18 18.2002L6 18.2227H5.33301C3.49221 18.2225 2 16.7295 2 14.8887C2.00012 13.0606 3.52692 11.5543 5.34863 11.5557C5.3537 11.5557 5.35874 11.5519 5.35938 11.5469C5.64432 8.43653 8.25968 6.00006 11.4443 6Z" fill="#2B3F6C"/>
<path d="M9.5 19.5L11.6464 21.6465C11.8417 21.8417 12.1583 21.8417 12.3535 21.6465L14.5 19.5M12 21L12 14.5" stroke="#2B3F6C" stroke-width="1.5" stroke-linecap="round"/>
</svg>
