<svg width="24" height="24" viewBox="0 0 24 24" fill="none" xmlns="http://www.w3.org/2000/svg">
<path opacity="0.3" fill-rule="evenodd" clip-rule="evenodd" d="M6.99985 6C4.23842 6 1.99985 8.23858 1.99985 11V17C1.99985 19.7614 4.23842 22 6.99985 22H16.9998C19.6774 22 21.8634 19.8953 21.9937 17.25H17.4998C15.7049 17.25 14.2498 15.7949 14.2498 14C14.2498 12.2051 15.7049 10.75 17.4998 10.75H21.9937C21.8634 8.10472 19.6774 6 16.9998 6H6.99985ZM5.99985 16.75C5.58563 16.75 5.24985 17.0858 5.24985 17.5C5.24985 17.9142 5.58563 18.25 5.99985 18.25H11.9998C12.4141 18.25 12.7498 17.9142 12.7498 17.5C12.7498 17.0858 12.4141 16.75 11.9998 16.75H5.99985Z" fill="#2B3F6C"/>
<path fill-rule="evenodd" clip-rule="evenodd" d="M17.4998 12.25H21.9998V15.75H17.4998C16.5333 15.75 15.7498 14.9665 15.7498 14C15.7498 13.0335 16.5333 12.25 17.4998 12.25ZM17.4998 13.25C17.0856 13.25 16.7498 13.5858 16.7498 14C16.7498 14.4142 17.0856 14.75 17.4998 14.75H17.6998C18.1141 14.75 18.4498 14.4142 18.4498 14C18.4498 13.5858 18.1141 13.25 17.6998 13.25H17.4998Z" fill="#2B3F6C"/>
<path d="M19.4877 4.99302C18.7667 3.00165 16.6605 1.716 14.4413 2.1729L5.84058 3.94363C4.0442 4.31348 2.58881 5.4977 1.82758 7.06305C3.01504 5.5053 4.89016 4.5 7.00009 4.5H17.0001C17.8812 4.5 18.7215 4.67534 19.4877 4.99302Z" fill="#2B3F6C"/>
</svg>
