<svg width="24" height="24" viewBox="0 0 24 24" fill="none" xmlns="http://www.w3.org/2000/svg">
<path opacity="0.3" d="M20.5145 19.1946C20.9284 19.1946 21.2643 19.5303 21.2645 19.9446C21.2645 20.359 20.9285 20.6956 20.5145 20.6956H14.3934L14.3162 20.6917C13.9384 20.653 13.6434 20.3329 13.6434 19.9446C13.6435 19.5564 13.9385 19.2371 14.3162 19.1985L14.3934 19.1946H20.5145Z" fill="#2B3F6C"/>
<path d="M16.8713 4.33584C16.0902 3.55479 14.8244 3.55527 14.0439 4.33691L12.3807 6.0026L17.7212 11.3431L19.3811 9.63999C20.1455 8.85572 20.1375 7.60208 19.3631 6.82769L16.8713 4.33584Z" fill="#2B3F6C"/>
<path opacity="0.3" d="M16.6741 12.4173L11.3208 7.06396L4.74391 13.6508C4.21284 14.1827 3.90062 14.8947 3.86902 15.6459L3.75087 18.455C3.715 19.3077 4.39607 20.0186 5.24891 20.0186L8.00105 20.0188C8.8094 20.0188 9.58353 19.6923 10.1479 19.1132L16.6741 12.4173Z" fill="#2B3F6C"/>
</svg>
