<svg width="24" height="24" viewBox="0 0 24 24" fill="none" xmlns="http://www.w3.org/2000/svg">
<path opacity="0.3" d="M14.7578 1.25C15.7522 1.25012 16.706 1.64548 17.4092 2.34863L21.6514 6.59082C22.3545 7.29397 22.7499 8.24779 22.75 9.24219V18C22.75 20.6234 20.6234 22.75 18 22.75H6C3.37665 22.75 1.25 20.6234 1.25 18V6C1.25 3.37665 3.37665 1.25 6 1.25H14.7578Z" fill="#2B3F6C"/>
<path d="M16 12.25C17.5188 12.25 18.75 13.4812 18.75 15V22.6904C18.5057 22.7292 18.2552 22.75 18 22.75H17.25V15C17.25 14.3096 16.6904 13.75 16 13.75H8C7.30964 13.75 6.75 14.3096 6.75 15V22.75H6C5.74476 22.75 5.49433 22.7292 5.25 22.6904V15C5.25 13.4812 6.48122 12.25 8 12.25H16ZM8.75 1.25V6C8.75 6.13807 8.86193 6.25 9 6.25H15C15.1381 6.25 15.25 6.13807 15.25 6V1.2832C15.7844 1.35402 16.2956 1.53914 16.75 1.82422V6C16.75 6.9665 15.9665 7.75 15 7.75H9C8.0335 7.75 7.25 6.9665 7.25 6V1.25H8.75Z" fill="#2B3F6C"/>
</svg>
