<svg width="24" height="24" viewBox="0 0 24 24" fill="none" xmlns="http://www.w3.org/2000/svg">
<path opacity="0.3" d="M19.8225 1.62152C21.3675 1.50931 22.609 2.80625 22.4046 4.36957L22.3411 4.83051C21.9851 7.22391 21.0994 10.8973 18.8538 13.3188L18.4466 13.7377C17.7738 14.3996 17.0066 15.0143 16.2229 15.5727L16.5003 17.5112L16.5179 17.7153C16.5296 18.1909 16.3466 18.6548 16.0061 18.9955L12.8235 22.1782C11.8357 23.1656 10.1662 22.6505 9.87723 21.3198L9.8538 21.1879L9.42899 18.2182L9.43485 18.2172C9.16301 18.086 8.90926 17.9103 8.68973 17.6909L6.35087 15.351C6.1312 15.1313 5.95476 14.878 5.82352 14.6059V14.6127L2.85282 14.1879C1.42572 13.9837 0.844306 12.2378 1.86356 11.2182L5.0452 8.03558C5.43467 7.64621 5.98536 7.46358 6.53056 7.54144L8.46806 7.81781C9.14259 6.87123 9.9013 5.94998 10.7229 5.18793L10.9681 4.9682C13.5535 2.74024 17.3868 1.93508 19.6722 1.63617L19.8225 1.62152Z" fill="#2B3F6C"/>
<path d="M5.92922 18.112L3.10079 20.9405M3.8079 15.9907L2.39369 17.4049M8.05054 20.2334L6.63633 21.6476" stroke="#2B3F6C" stroke-width="1.5" stroke-linecap="round"/>
<path d="M13.7072 7.50552C12.9261 8.28657 12.9261 9.5529 13.7072 10.3339C14.4882 11.115 15.7545 11.115 16.5356 10.3339C17.3166 9.5529 17.3166 8.28657 16.5356 7.50552C15.7545 6.72447 14.4882 6.72447 13.7072 7.50552Z" fill="#2B3F6C"/>
</svg>
