<svg width="24" height="24" viewBox="0 0 24 24" fill="none" xmlns="http://www.w3.org/2000/svg">
<path d="M18.769 13.6337C19.7452 13.7328 20.7123 13.9447 21.6489 14.2733C22.4591 14.5575 23.0005 15.3111 23.0005 16.1561V17.0575C23.0005 18.2391 21.9345 19.1474 20.7436 18.9803L20.4702 18.9413C20.415 18.9335 20.3595 18.9281 20.3042 18.9208C20.3784 18.6199 20.4204 18.3051 20.4204 17.9794V16.8593C20.4204 15.559 19.7871 14.3696 18.769 13.6337ZM17.5005 5.99988C19.3815 6.00013 20.9065 7.49792 20.9067 9.34558C20.9067 11.1934 19.3816 12.692 17.5005 12.6923C17.0324 12.6923 16.5862 12.5984 16.1802 12.4305C17.2208 11.4051 17.8667 9.98056 17.8667 8.40417C17.8667 7.54533 17.6741 6.73185 17.3315 6.00281C17.3873 6.00014 17.444 5.99988 17.5005 5.99988Z" fill="#2B3F6C"/>
<path d="M5.61182 13.6337C4.63569 13.7328 3.66856 13.9447 2.73193 14.2733C1.92176 14.5575 1.38037 15.3111 1.38037 16.1561V17.0575C1.38037 18.2391 2.44638 19.1474 3.63721 18.9803L3.91064 18.9413C3.96587 18.9335 4.02139 18.9281 4.07666 18.9208C4.00243 18.6199 3.96049 18.3051 3.96045 17.9794V16.8593C3.96047 15.559 4.59375 14.3696 5.61182 13.6337ZM6.88037 5.99988C4.99938 6.00013 3.4743 7.49792 3.47412 9.34558C3.47412 11.1934 4.99927 12.692 6.88037 12.6923C7.34849 12.6923 7.79468 12.5984 8.20068 12.4305C7.16006 11.4051 6.51417 9.98056 6.51416 8.40417C6.51416 7.54533 6.70671 6.73185 7.04932 6.00281C6.99352 6.00014 6.93684 5.99988 6.88037 5.99988Z" fill="#2B3F6C"/>
<path opacity="0.3" fill-rule="evenodd" clip-rule="evenodd" d="M7.15298 14.5213C10.425 13.3528 14.0006 13.3528 17.2726 14.5213C18.2607 14.8742 18.9203 15.8101 18.9203 16.8593V17.9789C18.9203 19.4459 17.6209 20.5728 16.1687 20.3653L15.8351 20.3176C13.4325 19.9744 10.9932 19.9744 8.59048 20.3176L8.25693 20.3653C6.80467 20.5728 5.50536 19.4459 5.50536 17.9789V16.8593C5.50536 15.8101 6.16492 14.8742 7.15298 14.5213Z" fill="#2B3F6C"/>
<path opacity="0.3" fill-rule="evenodd" clip-rule="evenodd" d="M16.3671 8.40413C16.3671 6.1098 14.5072 4.24988 12.2128 4.24988C9.91849 4.24988 8.05857 6.1098 8.05857 8.40413C8.05857 10.6985 9.91849 12.5584 12.2128 12.5584C14.5072 12.5584 16.3671 10.6985 16.3671 8.40413Z" fill="#2B3F6C"/>
</svg>
