<svg width="24" height="24" viewBox="0 0 24 24" fill="none" xmlns="http://www.w3.org/2000/svg">
<path opacity="0.3" d="M18 3.25C20.6234 3.25 22.75 5.37665 22.75 8V9.22266C22.75 9.78801 22.356 10.1975 21.9297 10.3447C21.2424 10.5817 20.75 11.2345 20.75 12C20.75 12.7655 21.2424 13.4183 21.9297 13.6553C22.356 13.8025 22.75 14.212 22.75 14.7773V16C22.75 18.6234 20.6234 20.75 18 20.75H6C3.37665 20.75 1.25 18.6234 1.25 16V14.7773C1.25 14.212 1.644 13.8025 2.07031 13.6553C2.75755 13.4183 3.25 12.7655 3.25 12C3.25 11.2345 2.75755 10.5817 2.07031 10.3447C1.644 10.1975 1.25 9.78801 1.25 9.22266V8C1.25 5.37665 3.37665 3.25 6 3.25H18Z" fill="#2B3F6C"/>
<path d="M15 16.25C15.4142 16.25 15.75 16.5858 15.75 17V20.75H14.25V17C14.25 16.5858 14.5858 16.25 15 16.25ZM15 9.75C15.3882 9.75 15.7075 10.0449 15.7461 10.4229L15.75 10.5V13.5L15.7461 13.5771C15.7075 13.9551 15.3882 14.25 15 14.25C14.6118 14.25 14.2925 13.9551 14.2539 13.5771L14.25 13.5V10.5C14.25 10.0858 14.5858 9.75 15 9.75ZM15.75 3.25V7C15.75 7.41421 15.4142 7.75 15 7.75C14.5858 7.75 14.25 7.41421 14.25 7V3.25H15.75Z" fill="#2B3F6C"/>
</svg>
