<svg width="143" height="109" viewBox="0 0 143 109" fill="none" xmlns="http://www.w3.org/2000/svg">
<g clip-path="url(#clip0_219_1200)">
<path d="M137.762 107.426H1.57153V107.813H137.762V107.426Z" fill="#EDF2FF"/>
<path fill-rule="evenodd" clip-rule="evenodd" d="M25.0481 19.3669H77.9294C77.9294 19.3669 70.4975 11.6776 58.6751 14.5955C46.8529 17.5134 48.8974 9.23999 39.123 9.23999C29.3487 9.23999 25.0481 19.3669 25.0481 19.3669Z" fill="#EDF2FF"/>
<path fill-rule="evenodd" clip-rule="evenodd" d="M106.296 39.1764H143.087C143.087 39.1764 138.623 29.1197 130.398 32.0376C122.172 34.9555 122.148 35.8267 115.347 35.8267C108.547 35.8267 106.296 39.1764 106.296 39.1764Z" fill="#EDF2FF"/>
<path fill-rule="evenodd" clip-rule="evenodd" d="M6.65234 39.1764H43.4439C43.4439 39.1764 38.9796 29.1197 30.7544 32.0376C22.5292 34.9555 22.5046 35.8267 15.7042 35.8267C8.90377 35.8267 6.65234 39.1764 6.65234 39.1764Z" fill="#EDF2FF"/>
<path d="M106.296 19.367C111.739 19.367 116.151 15.2864 116.151 10.2527C116.151 5.21902 111.739 1.13843 106.296 1.13843C100.854 1.13843 96.4414 5.21902 96.4414 10.2527C96.4414 15.2864 100.854 19.367 106.296 19.367Z" fill="#EDF2FF"/>
<path d="M96.0385 103.469C96.0385 103.469 92.3834 102.179 89.1417 100.921C84.7217 86.8376 79.2476 74.3187 76.2943 60.5221C78.1448 61.8431 80.318 65.2421 82.5543 64.5423C87.9433 62.8557 89.9371 58.5173 92.8312 55.2506C93.8786 57.4413 97.6407 52.109 95.3023 52.3813C95.8418 51.7371 95.2947 50.8294 94.4076 51.1802C94.6922 50.4108 93.7097 49.8213 93.0174 50.3201C91.5106 48.4941 88.6194 51.9751 87.4306 52.9038C85.35 54.409 83.3582 56.0375 81.4161 57.6625C80.6522 56.4526 79.1417 54.0512 78.1849 52.9805C76.8453 51.4815 72.5733 48.9057 69.6668 48.8079C65.2258 48.8079 64.3101 49.0071 62.2247 50.1702C57.6015 52.7487 52.7681 55.2471 52.1903 59.2549C52.3899 63.7148 62.3517 68.9143 57.5526 72.7732C57.0228 73.4668 58.1092 74.2218 58.581 74.0897C58.5562 74.2183 58.4312 74.3534 58.581 74.8218C58.7307 75.2902 59.643 75.2022 60.1002 74.944C60.385 75.6475 61.0588 75.3999 61.4608 74.8218C66.3133 72.8011 60.4326 64.2585 59.5217 60.5697C60.3294 60.0498 61.0494 58.9509 61.8304 58.3305C62.2697 62.089 64.4848 65.4156 64.9871 69.1248C64.6032 71.0679 64.713 71.8301 63.7735 74.0897C62.5685 78.6059 61.2288 82.3178 60.3351 85.669C55.2835 84.284 40.1238 79.8123 40.1238 79.8123L35.6216 89.4718L43.188 87.5296C43.188 87.5296 62.5435 92.97 64.3282 91.7399C67.3217 89.6761 70.9329 80.1146 72.4329 78.027C75.6364 86.3079 85.0648 107.232 85.0648 107.232L96.0385 103.469Z" fill="#FFD8EA"/>
<path d="M80.0109 76.7846C79.9463 76.6309 79.8815 76.477 79.8169 76.3242C79.8872 76.4857 79.9575 76.6471 80.0264 76.8087C80.0208 76.8 80.0166 76.7923 80.0109 76.7846Z" fill="#CE9696"/>
<path d="M87.4861 106.851C87.4786 106.849 87.4719 106.846 87.4644 106.844C87.778 106.922 88.0936 106.986 88.4072 107.038C88.0917 107.041 87.7884 106.949 87.4861 106.851Z" fill="#CE9696"/>
<path d="M78.0489 61.7668L81.8072 55.3216C81.8072 55.3216 73.2821 44.5602 61.1864 50.2989C59.6588 51.0239 55.4072 53.7248 55.4072 53.7248L60.3608 60.4058L61.8644 59.5586L63.9649 67.5074L78.9821 66.4416L78.0489 61.7668Z" fill="#7CB4FF"/>
<path d="M64.7168 67.5336L60.7502 80.438L71.2574 83.5909L78.5598 66.4415L64.7168 67.5336Z" fill="#303030"/>
<path d="M73.7817 83.3971L77.9911 81.2351L77.9959 79.0977L80.0042 80.9755L83.7977 79.1153L82.1605 75.2373L78.5617 66.2478L64.5215 67.3592C64.5215 67.3592 65.2437 70.615 66.8638 73.3296C68.7556 76.5001 73.7817 83.3971 73.7817 83.3971Z" fill="#303030"/>
<path fill-rule="evenodd" clip-rule="evenodd" d="M94.3916 53.4052C94.0851 53.5559 93.8464 53.8028 93.6449 54.0584C93.5647 54.1597 93.4912 54.2673 93.4215 54.3767C93.3575 54.4208 93.2897 54.4595 93.2181 54.4903C92.9908 54.5873 92.7951 54.5168 92.6595 54.3273C92.4714 54.0646 92.5469 53.7455 92.691 53.4819C92.7121 53.4432 92.734 53.4052 92.7579 53.3682C92.8646 53.2602 92.9614 53.1445 93.0578 53.0292L93.0755 53.008L93.092 52.9883C93.1032 52.9749 93.1142 52.9614 93.1251 52.948C93.2097 52.8448 93.2962 52.7395 93.4043 52.6568C93.5341 52.5501 93.3461 52.3826 93.2152 52.4822C93.1865 52.5043 93.1589 52.528 93.1312 52.5528C92.9087 52.7459 92.6701 52.9953 92.501 53.2686C92.375 53.392 92.2241 53.5013 92.0551 53.5092C91.8173 53.5198 91.6855 53.318 91.7114 53.1223C91.7448 52.8702 91.9061 52.6312 92.0512 52.4215C92.1229 52.3187 92.2007 52.2196 92.2786 52.1205V52.1204L92.2787 52.1203C92.3617 52.0147 92.4447 51.9091 92.5201 51.7991C92.6128 51.6651 92.3817 51.5416 92.29 51.6747C92.2106 51.7899 92.1204 51.9042 92.0292 52.0198C91.7631 52.3569 91.488 52.7054 91.4439 53.1223C91.4144 53.3981 91.5796 53.6424 91.8679 53.7296C92.0226 53.7772 92.1716 53.7543 92.3091 53.6961C92.2527 53.9104 92.2585 54.1281 92.3616 54.3387C92.4896 54.6015 92.7607 54.8183 93.0863 54.7796C93.1303 54.7742 93.1723 54.7645 93.2143 54.7531C93.1904 54.8042 93.1665 54.8562 93.1456 54.9082C93.0873 55.0572 93.3375 55.1154 93.3995 54.9726C93.4645 54.8227 93.5408 54.6781 93.6268 54.5371C93.7089 54.4754 93.7853 54.4092 93.8569 54.344C94.0156 54.1975 94.1569 54.0373 94.2983 53.8771C94.3813 53.783 94.4644 53.6888 94.5511 53.5974C94.6523 53.4942 94.5292 53.3374 94.3916 53.4052ZM59.7198 72.3625C59.614 72.4135 59.5395 72.5375 59.4769 72.6418C59.4639 72.6636 59.4513 72.6844 59.4391 72.7036C59.3541 72.8376 59.2749 72.9743 59.1985 73.1127C59.1332 73.2305 59.0701 73.3494 59.0071 73.4682L59.007 73.4683C58.9272 73.6187 58.8474 73.7692 58.763 73.9175C58.6838 74.0576 58.9139 74.1819 58.9932 74.0418C59.0767 73.895 59.1557 73.7463 59.2347 73.5976C59.2967 73.4809 59.3587 73.3643 59.4228 73.2484C59.4954 73.118 59.569 72.9875 59.6492 72.8606C59.6892 72.7962 59.7312 72.7318 59.7752 72.6692C59.7826 72.6587 59.7903 72.648 59.7982 72.6371C59.8341 72.5875 59.8722 72.5351 59.8832 72.478C59.8983 72.3907 59.8106 72.3184 59.7198 72.3625ZM60.6432 73.7985C60.5609 73.925 60.5248 74.0774 60.4901 74.2245C60.4806 74.265 60.4711 74.3051 60.4608 74.3441C60.413 74.5231 60.3624 74.7038 60.2812 74.8722C60.2526 74.933 60.2622 75.0044 60.329 75.0406C60.3854 75.0714 60.4818 75.0573 60.5114 74.9965C60.5993 74.8132 60.6604 74.6227 60.7129 74.4288C60.7242 74.3868 60.7352 74.3446 60.7463 74.3025L60.7464 74.3021V74.302C60.7597 74.2514 60.7729 74.201 60.7864 74.1511L60.7909 74.1349L60.7938 74.1245L60.7985 74.1083C60.8224 74.0235 60.8461 73.9398 60.8551 73.8522C60.8676 73.7429 60.6976 73.7147 60.6432 73.7985ZM61.6038 73.9881C61.6687 73.9696 61.7546 74.0109 61.768 74.0744C61.7909 74.1864 61.7996 74.301 61.7852 74.4155C61.769 74.5381 61.7374 74.6579 61.6477 74.7532C61.6152 74.7876 61.555 74.7893 61.514 74.7691C61.4682 74.7461 61.4548 74.6968 61.4634 74.6536C61.4685 74.6263 61.4756 74.5993 61.4829 74.5723C61.4877 74.5539 61.4926 74.5355 61.4968 74.517L61.5112 74.4508C61.514 74.4402 61.516 74.4288 61.5179 74.4173V74.4164C61.5179 74.4147 61.5181 74.4129 61.5183 74.4112C61.5186 74.4094 61.5188 74.4076 61.5188 74.4058C61.5246 74.3591 61.5264 74.3133 61.5246 74.2666C61.5235 74.2419 61.5216 74.2163 61.5188 74.1916C61.5188 74.1907 61.5187 74.1897 61.5186 74.1887L61.5185 74.1877L61.5183 74.1864L61.5181 74.1843C61.518 74.1836 61.5179 74.1829 61.5179 74.1822V74.1816V74.1811V74.1793C61.5164 74.1727 61.5152 74.1661 61.514 74.1595C61.5128 74.1529 61.5116 74.1463 61.5102 74.1397C61.4968 74.0718 61.5302 74.0101 61.6038 73.9881ZM91.7572 54.4498C91.8326 54.4208 91.9147 54.3591 91.9787 54.2991C92.0999 54.1862 92.2881 54.3608 92.1668 54.4727C91.9853 54.6428 91.7505 54.7575 91.486 54.7134C91.0363 54.6394 90.7307 54.1872 90.5263 53.8504C90.3163 53.5022 90.1492 53.1311 90.0088 52.7547C89.9525 52.6048 90.2103 52.5404 90.2657 52.6894C90.3249 52.8498 90.3898 53.0085 90.4615 53.1645C90.6314 53.5348 90.83 53.9235 91.128 54.2215C91.2473 54.3405 91.3838 54.4481 91.5499 54.4754C91.6063 54.4842 91.6846 54.478 91.7572 54.4498ZM58.642 59.9013C58.573 59.8714 58.5041 59.8415 58.4356 59.8113C58.3706 59.7831 58.2914 59.7945 58.2532 59.8554C58.2188 59.9091 58.236 59.9946 58.3009 60.0238C58.3438 60.0426 58.3866 60.0614 58.4295 60.0803L58.4298 60.0804C58.8496 60.2649 59.2659 60.4479 59.6453 60.6998C59.7667 60.7809 59.9261 60.594 59.8067 60.5077C59.4536 60.2532 59.0461 60.0766 58.642 59.9013ZM81.9745 58.8546C82.0015 58.8899 82.0286 58.925 82.052 58.9623C82.1064 59.0496 81.9938 59.1669 81.8954 59.106C81.714 58.9932 81.6013 58.7851 81.5316 58.5983C81.461 58.4078 81.4371 58.2007 81.4533 57.9997C81.4591 57.9327 81.5106 57.8763 81.587 57.8763C81.6557 57.8763 81.7264 57.9336 81.7207 57.9997C81.7063 58.177 81.7235 58.3497 81.7837 58.5181C81.8114 58.5965 81.8496 58.6706 81.8945 58.7429C81.9187 58.7818 81.9466 58.8183 81.9745 58.8546Z" fill="#303030"/>
<path d="M100.391 100.934C100.525 101.296 100.563 102.645 100.563 102.645L98.6085 103.269L97.7249 103.286L97.1788 103.726L95.5683 104.241C95.5683 104.241 95.0414 104.216 94.8126 104.289C94.5837 104.362 94.3144 104.642 94.3144 104.642L92.7442 105.144C92.7442 105.144 92.2198 105.038 91.9758 105.116C91.7319 105.194 91.5413 105.528 91.5413 105.528L90.1828 105.962C90.1828 105.962 89.6256 105.941 89.3801 106.019C89.1347 106.097 88.7919 106.407 88.7919 106.407L87.5581 106.801L86.5002 106.936L85.9317 107.321L84.7486 107.329L83.8899 105.103L99.9542 100.018C100.004 100.099 100.256 100.573 100.391 100.934Z" fill="#EBEBEB"/>
<path fill-rule="evenodd" clip-rule="evenodd" d="M88.4912 96.1861C87.8105 96.4931 88.1721 99.1289 88.1721 99.1289C88.1721 99.1289 88.9733 100.733 89.8427 101.078C90.7122 101.424 93.3193 101.247 93.3193 101.247L99.4857 99.5293L93.5109 98.9554C93.5109 98.9554 91.4749 97.9578 91.0528 97.8295C89.8549 97.4653 89.172 95.8789 88.4912 96.1861Z" fill="#FAFAFA"/>
<path fill-rule="evenodd" clip-rule="evenodd" d="M100.169 100.261L84.0396 105.673L82.7234 102.862L81.9536 100.07L88.0558 98.1271C88.0558 98.1271 89.3896 99.4553 90.108 100.099C90.8262 100.743 93.5237 100.429 93.5237 100.429L93.4831 101.055L99.4857 99.5294C99.516 99.5503 99.5458 99.5721 99.5754 99.5947C99.7908 99.7607 99.9882 99.9706 100.154 100.236C100.159 100.244 100.164 100.253 100.169 100.261Z" fill="#2D67F8"/>
<path fill-rule="evenodd" clip-rule="evenodd" d="M88.9492 100.11C88.9492 100.11 90.1512 101.792 88.1016 101.827C86.0521 101.862 83.9172 101.713 83.9172 101.713C83.9172 101.713 87.3238 102.711 88.1454 102.792C88.9672 102.872 90.8958 102.57 90.7256 101.711C90.5554 100.851 88.9492 100.11 88.9492 100.11Z" fill="#FAFAFA"/>
<path fill-rule="evenodd" clip-rule="evenodd" d="M91.7873 98.2084L91.7958 98.2003C91.8343 98.1672 91.8943 98.1654 91.935 98.1977C91.979 98.2325 91.9841 98.2937 91.9466 98.3343L90.7541 99.6238L90.7458 99.6321C90.7072 99.665 90.6473 99.6669 90.6065 99.6346C90.5625 99.5998 90.5574 99.5386 90.5949 99.498L91.7873 98.2084ZM92.6478 98.6084L92.6394 98.6167L91.6634 99.6917C91.6262 99.7326 91.6319 99.7938 91.6762 99.8282C91.7174 99.8602 91.7773 99.8578 91.8155 99.8245L91.8239 99.8163L92.7999 98.7413C92.8371 98.7003 92.8314 98.6392 92.787 98.6048C92.749 98.5753 92.6951 98.5749 92.657 98.6013L92.6478 98.6084ZM93.415 98.8942L93.4069 98.9026L92.5555 99.9123C92.5199 99.9544 92.5281 100.015 92.5736 100.048C92.6161 100.079 92.6758 100.074 92.7127 100.04L92.7207 100.031L93.5721 99.0218C93.6076 98.9796 93.5996 98.9188 93.5539 98.8858C93.5116 98.8553 93.4518 98.8596 93.415 98.8942Z" fill="#303030"/>
<path d="M96.5495 99.6955C96.4948 99.7129 96.4352 99.686 96.4163 99.6354C96.3975 99.5848 96.4266 99.5297 96.4813 99.5123C96.536 99.4948 96.5956 99.5217 96.6144 99.5723C96.6333 99.6229 96.6042 99.6781 96.5495 99.6955Z" fill="#303030"/>
<path d="M97.6371 99.7706C97.5824 99.788 97.5228 99.7611 97.504 99.7105C97.4851 99.6599 97.5142 99.6048 97.5689 99.5873C97.6236 99.5699 97.6832 99.5968 97.7021 99.6474C97.7209 99.698 97.6918 99.7531 97.6371 99.7706Z" fill="#303030"/>
<path d="M95.5466 100.117C95.4918 100.135 95.4322 100.108 95.4134 100.057C95.3946 100.007 95.4236 99.9516 95.4783 99.9341C95.533 99.9167 95.5927 99.9436 95.6115 99.9942C95.6303 100.045 95.6013 100.1 95.5466 100.117Z" fill="#303030"/>
<path d="M95.0248 99.5192C94.9701 99.5366 94.9105 99.5097 94.8917 99.4591C94.8728 99.4085 94.9019 99.3534 94.9566 99.336C95.0113 99.3186 95.0709 99.3455 95.0898 99.3961C95.1086 99.4466 95.0795 99.5018 95.0248 99.5192Z" fill="#303030"/>
<path d="M94.256 100.426C94.2013 100.443 94.1417 100.416 94.1229 100.366C94.104 100.315 94.1331 100.26 94.1878 100.243C94.2425 100.225 94.3021 100.252 94.321 100.303C94.3398 100.353 94.3107 100.408 94.256 100.426Z" fill="#303030"/>
<path d="M33.231 93.401C32.8504 93.2516 31.7417 92.3745 31.7417 92.3745L32.5473 90.6137L33.1255 89.9954L33.1368 89.3253L33.8009 87.874C33.8009 87.874 34.1735 87.5286 34.2679 87.3223C34.3623 87.1162 34.3179 86.744 34.3179 86.744L34.9653 85.3291C34.9653 85.3291 35.4007 85.039 35.5013 84.8191C35.6019 84.5993 35.4613 84.2451 35.4613 84.2451L36.0214 83.0209C36.0214 83.0209 36.4117 82.6523 36.5129 82.4311C36.6141 82.2099 36.595 81.7674 36.595 81.7674L37.1037 80.6556L37.703 79.8381L37.7743 79.19L38.5595 78.3715L40.9225 79.2705L34.2593 93.7139C34.1614 93.694 33.6116 93.5504 33.231 93.401Z" fill="#EBEBEB"/>
<path fill-rule="evenodd" clip-rule="evenodd" d="M45.0088 88.3996C45.2176 87.7262 42.8577 86.2112 42.8577 86.2112C42.8577 86.2112 41.0329 85.6885 40.1734 86.0548C39.3138 86.4212 37.7114 88.3313 37.7114 88.3313L34.9656 93.719L39.4248 89.9964C39.4248 89.9964 41.5887 89.2647 41.9743 89.0605C43.0684 88.4808 44.8 89.0729 45.0088 88.3996Z" fill="#FAFAFA"/>
<path fill-rule="evenodd" clip-rule="evenodd" d="M33.9204 93.6992L40.3642 78.9918L43.5043 79.9687L46.2623 81.3073L43.7406 86.8015C43.7406 86.8015 41.7808 86.8296 40.7829 86.8925C39.7852 86.9555 38.232 89.0191 38.232 89.0191L37.7564 88.5725L34.9656 93.719C34.9286 93.7258 34.8911 93.7316 34.8531 93.7369C34.5757 93.7739 34.275 93.7691 33.9506 93.7054C33.9403 93.7033 33.9305 93.7015 33.9204 93.6992Z" fill="#2D67F8"/>
<path fill-rule="evenodd" clip-rule="evenodd" d="M41.549 86.0885C41.549 86.0885 39.3934 85.7894 40.7368 84.3574C42.0801 82.9253 43.6284 81.5579 43.6284 81.5579C43.6284 81.5579 40.547 83.2313 39.9323 83.742C39.3177 84.2528 38.2701 85.7807 39.0745 86.2387C39.879 86.6967 41.549 86.0885 41.549 86.0885Z" fill="#FAFAFA"/>
<path fill-rule="evenodd" clip-rule="evenodd" d="M41.1782 89.3119L41.1791 89.3231C41.1799 89.3717 41.1412 89.4141 41.088 89.4205C41.0306 89.4275 40.978 89.3901 40.9704 89.3371L40.7321 87.6546L40.7313 87.6434C40.7305 87.5948 40.7691 87.5524 40.8224 87.546C40.8798 87.539 40.9324 87.5764 40.9399 87.6294L41.1782 89.3119ZM40.281 89.6356L40.2801 89.6243L40.0693 88.2342C40.0612 88.1812 40.0083 88.1442 39.951 88.1517C39.8978 88.1585 39.8595 88.2013 39.8608 88.2498L39.8617 88.261L40.0725 89.6512C40.0806 89.7042 40.1335 89.7411 40.1908 89.7337C40.2399 89.7274 40.2763 89.6904 40.2806 89.6466L40.281 89.6356ZM39.5381 89.9717L39.5367 89.9605L39.2951 88.6998C39.285 88.647 39.2307 88.6119 39.1737 88.6212C39.1208 88.6299 39.0842 88.6739 39.0873 88.7222L39.0888 88.7335L39.3304 89.9942C39.3405 90.0469 39.3948 90.0821 39.4518 90.0728C39.5047 90.064 39.5413 90.0201 39.5381 89.9717Z" fill="#303030"/>
<path d="M36.797 91.5899C36.8196 91.5406 36.8811 91.5176 36.9344 91.5385C36.9877 91.5594 37.0125 91.6163 36.9899 91.6656C36.9673 91.7148 36.9058 91.7378 36.8525 91.7169C36.7993 91.696 36.7744 91.6391 36.797 91.5899Z" fill="#303030"/>
<path d="M36.0087 92.2872C36.0313 92.238 36.0928 92.215 36.1461 92.2359C36.1993 92.2568 36.2242 92.3137 36.2016 92.363C36.179 92.4122 36.1175 92.4352 36.0642 92.4143C36.011 92.3934 35.9861 92.3365 36.0087 92.2872Z" fill="#303030"/>
<path d="M37.1291 90.6183C37.1517 90.569 37.2132 90.5461 37.2664 90.567C37.3197 90.5879 37.3445 90.6448 37.3219 90.694C37.2993 90.7433 37.2378 90.7663 37.1846 90.7453C37.1313 90.7244 37.1065 90.6676 37.1291 90.6183Z" fill="#303030"/>
<path d="M37.9587 90.6597C37.9813 90.6104 38.0428 90.5874 38.096 90.6084C38.1493 90.6293 38.1741 90.6861 38.1515 90.7354C38.1289 90.7847 38.0674 90.8076 38.0142 90.7867C37.9609 90.7658 37.9361 90.7089 37.9587 90.6597Z" fill="#303030"/>
<path d="M37.7446 89.5249C37.7672 89.4757 37.8287 89.4527 37.8819 89.4736C37.9352 89.4945 37.96 89.5514 37.9374 89.6006C37.9148 89.6499 37.8533 89.6729 37.8001 89.652C37.7468 89.6311 37.7219 89.5742 37.7446 89.5249Z" fill="#303030"/>
<path d="M120.057 100.546C120.057 100.803 120.041 101.058 120.011 101.307C119.937 101.902 119.78 102.474 119.549 103.012C119.203 103.82 118.691 104.551 118.051 105.168C117.789 105.421 117.507 105.654 117.206 105.867C116.322 106.49 115.277 106.93 114.139 107.122C113.714 107.194 113.276 107.232 112.829 107.232C112.587 107.232 112.35 107.221 112.114 107.199H112.113C111.143 107.111 110.23 106.846 109.412 106.439C109.013 106.241 108.636 106.008 108.286 105.747C107.419 105.098 106.717 104.268 106.248 103.318C106.053 102.92 105.897 102.501 105.788 102.066V102.065C105.665 101.577 105.6 101.069 105.6 100.546C105.6 100.078 105.652 99.6203 105.751 99.1787C105.803 98.9482 105.868 98.7219 105.945 98.5004C106.184 97.8131 106.539 97.1745 106.99 96.6049C107.482 95.9829 108.086 95.4426 108.776 95.0101C109.461 94.5805 110.229 94.2574 111.053 94.0645C111.347 93.9955 111.648 93.9432 111.956 93.9091C112.241 93.8771 112.533 93.8611 112.829 93.8611C113.907 93.8611 114.929 94.0791 115.848 94.4711C116.429 94.7177 116.966 95.0331 117.451 95.4064H117.452C118.185 95.9718 118.795 96.6676 119.24 97.4559C119.438 97.8061 119.604 98.1753 119.732 98.5583C119.944 99.1864 120.057 99.8542 120.057 100.546Z" fill="#EDF2FF"/>
<path d="M114.494 99.5353L114.451 101.895L112.065 102.456L110.633 100.442L112.135 98.6376L114.494 99.5353Z" fill="#303030"/>
<path d="M119.732 98.5583L119.641 98.6724L117.267 97.8186L117.262 97.8173V97.8131L117.255 95.4565L117.451 95.4064H117.452C118.185 95.9718 118.794 96.6676 119.24 97.4559C119.438 97.8061 119.604 98.1752 119.732 98.5583Z" fill="#303030"/>
<path d="M119.549 103.012C119.203 103.82 118.691 104.551 118.051 105.168C117.789 105.421 117.507 105.654 117.206 105.867L116.894 105.81L116.724 103.528L116.719 103.455L116.733 103.449L119.024 102.445L119.549 103.012Z" fill="#303030"/>
<path d="M112.154 107.159L112.114 107.199H112.113C111.143 107.111 110.23 106.846 109.412 106.439C109.013 106.241 108.636 106.008 108.286 105.747L108.302 105.572L110.754 105.16L110.814 105.15L110.83 105.175L112.154 107.159Z" fill="#303030"/>
<path d="M111.956 93.9092L110.702 95.4754L110.692 95.4886L110.677 95.4851L108.776 95.0101C109.461 94.5805 110.229 94.2574 111.053 94.0645C111.347 93.9955 111.648 93.9433 111.956 93.9092Z" fill="#303030"/>
<path d="M107.181 100.177L107.144 100.227L105.788 102.065C105.665 101.577 105.6 101.069 105.6 100.546C105.6 100.078 105.652 99.6202 105.751 99.1787C105.803 98.9482 105.868 98.7219 105.945 98.5004L107.169 100.159L107.181 100.177Z" fill="#303030"/>
<path fill-rule="evenodd" clip-rule="evenodd" d="M110.816 95.3365L110.512 95.462L111.926 98.9871L112.23 98.8616L110.816 95.3365ZM113.831 99.7896L117.242 97.6605L117.444 97.9367L114.033 100.066L113.831 99.7896ZM106.925 100.001L106.892 100.333L110.989 100.686L111.023 100.354L106.925 100.001ZM113.445 101.538L113.652 101.265L117.025 103.444L116.819 103.717L113.445 101.538ZM110.39 105.634L112.09 102.169L112.418 102.307L110.718 105.772L110.39 105.634Z" fill="#303030"/>
<path d="M65.9475 43.4831C65.9527 42.864 66.4221 42.1984 67.0548 42.4542C67.0978 42.4454 67.1407 42.4396 67.1837 42.4377C67.1837 37.9614 73.7366 38.8809 73.7743 43.3727C73.7743 47.0873 70.4167 49.0087 68.2586 46.8384C67.5839 46.1282 67.4498 45.2678 67.1984 44.4239C66.4923 44.4481 66.0093 44.0809 65.9475 43.4831Z" fill="#FFD8EA"/>
<path d="M75.3799 40.1315C75.1849 39.0057 74.3344 39.1579 73.7071 39.2325C73.0797 39.3071 72.8954 38.4644 72.1152 38.4644C71.335 38.4644 71.1326 38.966 70.5145 38.9311C69.8754 38.8943 69.1027 38.9311 68.5507 39.2325C67.9839 39.5415 67.4062 40.0835 67.1045 40.6203C66.7651 41.2229 66.763 42.0742 67.1045 42.7195C67.1684 42.8406 68.4267 41.4642 69.4952 41.1096C70.5637 40.755 71.7077 41.4347 72.1152 41.521C72.4945 41.6014 73.0767 42.0185 73.7071 41.8222C74.3373 41.626 75.575 41.2573 75.3799 40.1315Z" fill="black"/>
<path fill-rule="evenodd" clip-rule="evenodd" d="M66.8302 42.99C66.8095 42.9454 66.7555 42.9213 66.704 42.9355C66.6486 42.9507 66.617 43.0047 66.6335 43.056L66.7482 43.4121C66.6947 43.3927 66.6358 43.3789 66.5719 43.3706L66.5597 43.3697C66.5073 43.3685 66.4611 43.4039 66.4537 43.4531C66.4456 43.5061 66.4856 43.5551 66.5429 43.5625C66.6991 43.5827 66.7997 43.6421 66.8562 43.7425C66.8675 43.7636 66.8865 43.7797 66.9089 43.7886C66.9231 43.7942 66.9386 43.797 66.9545 43.7963C66.9661 43.7959 66.9779 43.7936 66.9892 43.7894C67.0006 43.7852 67.0108 43.7793 67.0195 43.7721C67.0314 43.7625 67.0405 43.7506 67.0465 43.7375C67.0525 43.7245 67.0555 43.7101 67.0548 43.6955C67.0545 43.6871 67.0529 43.6785 67.05 43.6702L66.8343 43.0007L66.8302 42.99Z" fill="#303030"/>
<path fill-rule="evenodd" clip-rule="evenodd" d="M66.9521 41.2915C66.4774 41.4065 66.7011 41.9135 66.7537 42.1279C66.8064 42.3424 67.0549 42.6069 67.0549 42.6069L73.7743 42.727C73.7743 42.727 74.1834 41.6531 73.7743 41.3811C73.3651 41.109 67.4269 41.1765 66.9521 41.2915Z" fill="#FFC2DF"/>
<path d="M71.979 44.8693C71.9665 44.8208 71.9486 44.7743 71.9361 44.7259C71.9235 44.6774 71.9099 44.629 71.8952 44.5806C71.8669 44.4875 71.8366 44.3955 71.8072 44.3025C71.7475 44.1155 71.6888 43.9266 71.6658 43.7328C71.6595 43.6824 71.6228 43.6388 71.5642 43.6388C71.5139 43.6388 71.4563 43.6824 71.4626 43.7328C71.5066 44.098 71.6564 44.4391 71.7465 44.7947C71.6606 44.7947 71.5757 44.7927 71.4898 44.7898C71.3746 44.7869 71.2394 44.7792 71.1326 44.8237C71.0592 44.8547 71.0781 44.9691 71.1556 44.9846C71.2122 44.9952 71.2708 44.9923 71.3274 44.9962C71.3892 45.0001 71.45 45.003 71.5118 45.0059C71.6417 45.0117 71.7726 45.0127 71.9026 44.9952C71.9623 44.9865 71.9916 44.9168 71.979 44.8693Z" fill="#303030"/>
<path d="M71.6368 45.547C71.3869 45.609 71.1232 45.6243 70.8654 45.599C70.864 45.599 70.8625 45.5983 70.8611 45.5983C70.6544 45.5224 70.4563 45.4125 70.2345 45.3852C70.2172 45.3718 70.1999 45.3592 70.1833 45.3445C70.1329 45.2992 70.0386 45.3192 70.0162 45.3778C69.9932 45.3918 69.9773 45.4165 69.9817 45.4518C70.0256 45.8441 70.2892 46.2344 70.7394 46.2964C70.9634 46.327 71.1845 46.2784 71.3624 46.1479C71.5295 46.0253 71.644 45.8521 71.7491 45.6829C71.7945 45.6136 71.7218 45.5264 71.6368 45.547Z" fill="#303030"/>
<path d="M70.2344 45.3853C70.2265 45.4778 70.2546 45.5664 70.3302 45.645C70.4339 45.7529 70.596 45.8129 70.7429 45.8509C70.8819 45.8868 71.0368 45.9015 71.1758 45.8549C71.2413 45.8329 71.299 45.7989 71.3501 45.7583C71.4351 45.7203 71.4927 45.6544 71.5208 45.5724" fill="#FAFAFA"/>
<path d="M72.0887 41.9517C72.0771 41.9274 72.0656 41.9042 72.051 41.8819C72.0436 41.8703 72.0342 41.8577 72.0258 41.8461C72.0216 41.8189 72.0111 41.7928 71.9881 41.7734C71.9294 41.724 71.8393 41.7201 71.7807 41.7734C71.6801 41.8664 71.6015 41.9807 71.5848 42.1135C71.5774 42.1755 71.5931 42.2433 71.6298 42.2956C71.6822 42.3702 71.7587 42.4129 71.8467 42.4439C71.8959 42.4613 71.9525 42.44 71.9891 42.409C72.0782 42.3344 72.1337 42.222 72.1274 42.1096C72.1253 42.0544 72.1117 42.003 72.0887 41.9517Z" fill="#F2F2F2"/>
<path d="M73.3364 43.1192C73.3113 43.0262 73.2746 42.9361 73.2317 42.8489C73.2034 42.7898 73.1699 42.7171 73.1143 42.6764C73.107 42.6706 73.0986 42.6677 73.0913 42.6629C73.0745 42.6212 73.0358 42.5844 72.9907 42.5757C72.908 42.5582 72.8399 42.5989 72.8105 42.6706C72.7644 42.783 72.7382 42.9051 72.7204 43.0243C72.6953 43.187 72.6764 43.3731 72.7644 43.5232C72.8608 43.6889 73.1196 43.7287 73.2683 43.5988C73.4056 43.4787 73.3783 43.2713 73.3364 43.1192Z" fill="#F2F2F2"/>
</g>
<defs>
<clipPath id="clip0_219_1200">
<rect width="143" height="109" fill="white"/>
</clipPath>
</defs>
</svg>
