<svg width="24" height="24" viewBox="0 0 24 24" fill="none" xmlns="http://www.w3.org/2000/svg">
<path d="M16 8.25C18.6234 8.25 20.75 10.3766 20.75 13V17C20.75 19.6234 18.6234 21.75 16 21.75H8C5.37665 21.75 3.25 19.6234 3.25 17V13C3.25 10.3766 5.37665 8.25 8 8.25H16ZM15.0303 12.9697C14.7557 12.6951 14.3209 12.6777 14.0264 12.918L13.9697 12.9697L11.5 15.4395L10.5303 14.4697L10.4736 14.418C10.1791 14.1779 9.74426 14.1952 9.46973 14.4697C9.1952 14.7443 9.17786 15.1791 9.41797 15.4736L9.46973 15.5303L10.9697 17.0303C11.2441 17.3047 11.6781 17.3218 11.9727 17.082L12.0303 17.0303L15.0303 14.0303L15.082 13.9736C15.3223 13.6791 15.3049 13.2443 15.0303 12.9697Z" fill="#2B3F6C"/>
<path opacity="0.3" d="M16 9V7C16 4.79086 14.2091 3 12 3V3C9.79086 3 8 4.79086 8 7L8 9" stroke="#2B3F6C" stroke-width="1.5"/>
</svg>
