<svg width="24" height="24" viewBox="0 0 24 24" fill="none" xmlns="http://www.w3.org/2000/svg">
<path opacity="0.3" d="M17.5824 5.25C19.6086 5.25004 20.7649 7.56361 19.5492 9.18457C19.0306 9.87626 18.7504 10.7175 18.7503 11.582V18C18.7503 20.6233 16.6236 22.7498 14.0003 22.75H10.0003C7.37705 22.7499 5.25035 20.6233 5.25035 18V11.582C5.2503 10.7174 4.96929 9.87631 4.45054 9.18457C3.23499 7.56375 4.39149 5.25042 6.41734 5.25H17.5824Z" fill="#2B3F6C"/>
<path d="M13.9998 17L13.9998 11" stroke="#2B3F6C" stroke-width="1.5" stroke-linecap="round" stroke-linejoin="round"/>
<path d="M9.9998 17L9.9998 11" stroke="#2B3F6C" stroke-width="1.5" stroke-linecap="round" stroke-linejoin="round"/>
<path d="M16 6L15.4558 4.36754C15.1836 3.55086 14.4193 3 13.5585 3H10.4415C9.58066 3 8.81638 3.55086 8.54415 4.36754L8 6" stroke="#2B3F6C" stroke-width="1.5" stroke-linecap="round"/>
</svg>
