<svg width="24" height="24" viewBox="0 0 24 24" fill="none" xmlns="http://www.w3.org/2000/svg">
<path opacity="0.3" d="M16.4277 4.27909C19.8127 3.9406 22.75 6.59895 22.75 10.0008V15.9998C22.7498 20.3439 17.0727 21.9907 14.748 18.3211C13.6642 16.6098 11.1881 16.5524 10.0264 18.2117L9.74219 18.618C7.12508 22.3564 1.25036 20.5046 1.25 15.9412V10.0008C1.25 6.59895 4.18732 3.9406 7.57227 4.27909L11.4775 4.66972C11.8249 4.70446 12.1751 4.70446 12.5225 4.66972L16.4277 4.27909Z" fill="#2B3F6C"/>
<circle cx="18" cy="9.97559" r="1" fill="#2B3F6C"/>
<circle cx="16" cy="12.9756" r="1" fill="#2B3F6C"/>
<path d="M8 13.4756L8 9.47559" stroke="#2B3F6C" stroke-width="1.5" stroke-linecap="round" stroke-linejoin="round"/>
<path d="M6 11.4756H10" stroke="#2B3F6C" stroke-width="1.5" stroke-linecap="round" stroke-linejoin="round"/>
</svg>
