<svg width="24" height="24" viewBox="0 0 24 24" fill="none" xmlns="http://www.w3.org/2000/svg">
<path opacity="0.3" d="M12 1.25C17.9371 1.25 22.75 6.06294 22.75 12C22.75 17.9371 17.9371 22.75 12 22.75C6.06294 22.75 1.25 17.9371 1.25 12C1.25 6.06294 6.06294 1.25 12 1.25Z" fill="#2B3F6C"/>
<path d="M10.4088 10.4093L14.8283 9.17189L13.5908 13.5913L9.1714 14.8287L10.4088 10.4093Z" fill="#2B3F6C"/>
<path fill-rule="evenodd" clip-rule="evenodd" d="M14.313 13.7935C14.2424 14.0458 14.0453 14.2429 13.793 14.3135L9.37363 15.551C9.11271 15.624 8.83267 15.5507 8.64107 15.3591C8.44948 15.1675 8.37612 14.8874 8.44918 14.6265L9.68662 10.2071C9.75725 9.95486 9.95437 9.75774 10.2066 9.68711L14.626 8.44967C14.887 8.37661 15.167 8.44997 15.3586 8.64156C15.5502 8.83316 15.6235 9.1132 15.5505 9.37412L14.313 13.7935ZM13.7465 10.2536L11.0173 11.0178L10.2531 13.747L12.9823 12.9828L13.7465 10.2536Z" fill="#2B3F6C"/>
</svg>
