<svg width="24" height="24" viewBox="0 0 24 24" fill="none" xmlns="http://www.w3.org/2000/svg">
<path opacity="0.3" d="M18 3.25C20.6234 3.25 22.75 5.37665 22.75 8V9.22266C22.75 9.78801 22.356 10.1975 21.9297 10.3447C21.2424 10.5817 20.75 11.2345 20.75 12C20.75 12.7655 21.2424 13.4183 21.9297 13.6553C22.356 13.8025 22.75 14.212 22.75 14.7773V16C22.75 18.6234 20.6234 20.75 18 20.75H6C3.37665 20.75 1.25 18.6234 1.25 16V14.7773C1.25 14.212 1.644 13.8025 2.07031 13.6553C2.75755 13.4183 3.25 12.7655 3.25 12C3.25 11.2345 2.75755 10.5817 2.07031 10.3447C1.644 10.1975 1.25 9.78801 1.25 9.22266V8C1.25 5.37665 3.37665 3.25 6 3.25H18Z" fill="#2B3F6C"/>
<path d="M11.601 8.52831C11.8011 8.26342 12.1989 8.26342 12.399 8.52831L13.3894 9.83976C13.4493 9.91897 13.5313 9.97859 13.6252 10.011L15.1785 10.5477C15.4922 10.6561 15.6152 11.0345 15.4251 11.3067L14.4839 12.6539C14.427 12.7353 14.3957 12.8317 14.3938 12.931L14.3634 14.5741C14.3573 14.906 14.0354 15.1399 13.7178 15.0432L12.1457 14.5644C12.0507 14.5354 11.9493 14.5354 11.8543 14.5644L10.2822 15.0432C9.96464 15.1399 9.64275 14.906 9.6366 14.5741L9.60616 12.931C9.60432 12.8317 9.57298 12.7353 9.51613 12.6539L8.57493 11.3067C8.38483 11.0345 8.50778 10.6561 8.82152 10.5477L10.3748 10.011C10.4687 9.97859 10.5507 9.91897 10.6106 9.83976L11.601 8.52831Z" fill="#2B3F6C"/>
</svg>
