<svg width="24" height="24" viewBox="0 0 24 24" fill="none" xmlns="http://www.w3.org/2000/svg">
<path opacity="0.3" d="M4.53854 3.87206C5.73568 2.67504 7.67463 2.73082 8.86861 3.9248L10.8608 5.91699C12.0548 7.11097 12.1106 9.04992 10.9135 10.2471L10.6372 10.5234C10.4289 10.7317 10.407 11.0697 10.6049 11.3096C11.022 11.815 11.4696 12.3158 11.9526 12.7988C12.4356 13.2818 12.9364 13.7294 13.4419 14.1465C13.6817 14.3442 14.0188 14.3214 14.227 14.1133L14.5034 13.8369C15.7005 12.6399 17.6395 12.6958 18.8335 13.8896L20.8266 15.8828C22.0206 17.0768 22.0764 19.0157 20.8794 20.2129L19.5922 21.5C18.2845 22.8075 16.1453 22.7012 14.0639 21.9375C11.9175 21.15 9.52183 19.5672 7.35299 17.3984C5.18414 15.2296 3.60052 12.8339 2.81295 10.6875C2.04924 8.606 1.94371 6.46592 3.25143 5.1582L4.53854 3.87206Z" fill="#2B3F6C"/>
<path d="M16 8.99996L21 4" stroke="#2B3F6C" stroke-width="1.5" stroke-linecap="round" stroke-linejoin="round"/>
<path d="M16 4.00004L21 9" stroke="#2B3F6C" stroke-width="1.5" stroke-linecap="round" stroke-linejoin="round"/>
</svg>
