<svg width="24" height="24" viewBox="0 0 24 24" fill="none" xmlns="http://www.w3.org/2000/svg">
<path d="M20 6.42871C21.1046 6.42871 22 7.32414 22 8.42871V10.083C22 10.9662 21.4202 11.7452 20.5742 11.999L13.1494 14.2266C12.3997 14.4515 11.6004 14.4515 10.8506 14.2266L3.4258 11.999C2.57983 11.7452 2.00002 10.9662 2.00002 10.083V8.42871C2.00002 7.32414 2.89545 6.42871 4.00002 6.42871H20ZM12 9.10742C11.5858 9.10742 11.25 9.44321 11.25 9.85742V11.5713L11.2539 11.6484C11.2924 12.0266 11.6117 12.3213 12 12.3213C12.3883 12.3213 12.7077 12.0266 12.7461 11.6484L12.75 11.5713V9.85742C12.75 9.44321 12.4142 9.10742 12 9.10742Z" fill="#2B3F6C"/>
<path opacity="0.3" d="M21.9165 16.9996C21.9164 19.6229 19.7898 21.7496 17.1665 21.7496H6.83351C4.21022 21.7496 2.08362 19.6229 2.08351 16.9996V13.0084C2.36062 13.19 2.66535 13.3374 2.99464 13.4362L10.4194 15.6637C11.4504 15.973 12.5497 15.973 13.5806 15.6637L21.0054 13.4362C21.3347 13.3374 21.6394 13.19 21.9165 13.0084V16.9996ZM21.853 10.8317C21.6304 11.3825 21.1692 11.8203 20.5747 11.9987L13.1489 14.2262C12.3994 14.451 11.6007 14.451 10.8511 14.2262L3.42531 11.9987C2.83076 11.8203 2.36857 11.3827 2.14601 10.8317L12.0005 12.4996L21.853 10.8317Z" fill="#2B3F6C"/>
<path d="M15.3333 6.42855V5C15.3333 3.89543 14.4379 3 13.3333 3H10.6667C9.56209 3 8.66666 3.89543 8.66666 5L8.66666 6.42855" stroke="#2B3F6C" stroke-width="1.5"/>
</svg>
