<svg width="24" height="24" viewBox="0 0 24 24" fill="none" xmlns="http://www.w3.org/2000/svg">
<circle cx="2" cy="2" r="2" transform="matrix(-1 0 0 1 14 14)" stroke="#2B3F6C" stroke-width="1.5"/>
<path d="M5 7.5C5 6.67157 5.67157 6 6.5 6H17.5C18.3284 6 19 6.67157 19 7.5C19 8.32843 18.3284 9 17.5 9H6.5C5.67157 9 5 8.32843 5 7.5Z" fill="#2B3F6C"/>
<path opacity="0.3" d="M17.229 19.249C17.0994 20.8038 15.7999 21.9998 14.2397 22H9.76025C8.19999 22 6.90057 20.8039 6.771 19.249L6.03857 10.4648C6.18883 10.488 6.34277 10.5 6.49951 10.5H17.4995C17.6561 10.5 17.8103 10.488 17.9604 10.4648L17.229 19.249Z" fill="#2B3F6C"/>
<path d="M15 2C16.1046 2 17 2.89543 17 4V4.5H7V4C7 2.89543 7.89543 2 9 2H15Z" fill="#2B3F6C"/>
</svg>
