<svg width="24" height="24" viewBox="0 0 24 24" fill="none" xmlns="http://www.w3.org/2000/svg">
<path opacity="0.3" d="M17.9998 3.24989C20.6232 3.24991 22.7493 5.37604 22.7493 7.99938L22.75 9.22232C22.75 9.78789 22.3555 10.1974 21.929 10.3444C21.2419 10.5814 20.7497 11.2336 20.7495 11.999C20.7495 12.7645 21.2417 13.4179 21.929 13.6549C22.3554 13.8019 22.7493 14.2108 22.7493 14.7763L22.75 15.9992C22.75 18.6226 20.6232 20.7494 17.9998 20.7494H5.99974C3.37641 20.7494 1.24955 18.6226 1.24955 15.9992L1.25024 14.7763C1.25025 14.2108 1.64415 13.8019 2.0706 13.6549C2.75784 13.4179 3.25003 12.7645 3.25003 11.999C3.24987 11.2336 2.75769 10.5814 2.0706 10.3444C1.6441 10.1974 1.24955 9.78789 1.24955 9.22232L1.25024 7.99938C1.25024 5.37604 3.37641 3.24991 5.99974 3.24989H17.9998Z" fill="#2B3F6C"/>
<path d="M10.3576 10.3574C10.0485 10.6666 9.54733 10.6666 9.23821 10.3574C8.9291 10.0483 8.9291 9.54716 9.23821 9.23805C9.54733 8.92893 10.0485 8.92893 10.3576 9.23805C10.6667 9.54716 10.6667 10.0483 10.3576 10.3574Z" fill="#2B3F6C"/>
<path d="M14.7604 14.7603C14.4513 15.0694 13.9502 15.0694 13.641 14.7603C13.3319 14.4512 13.3319 13.95 13.641 13.6409C13.9502 13.3318 14.4513 13.3318 14.7604 13.6409C15.0696 13.95 15.0696 14.4512 14.7604 14.7603Z" fill="#2B3F6C"/>
<path fill-rule="evenodd" clip-rule="evenodd" d="M14.7686 9.23005C15.0615 9.52294 15.0615 9.99781 14.7686 10.2907L10.2909 14.7683C9.99805 15.0612 9.52318 15.0612 9.23028 14.7683C8.93739 14.4754 8.93739 14.0006 9.23028 13.7077L13.7079 9.23005C14.0008 8.93715 14.4757 8.93715 14.7686 9.23005Z" fill="#2B3F6C"/>
</svg>
