<svg width="24" height="24" viewBox="0 0 24 24" fill="none" xmlns="http://www.w3.org/2000/svg">
<path d="M19 5L4 20" stroke="#2B3F6C" stroke-width="1.5" stroke-linecap="round" stroke-linejoin="round"/>
<path opacity="0.3" d="M14.2529 12.8359C15.45 11.639 17.389 11.6948 18.583 12.8887L20.5762 14.8818C21.7701 16.0758 21.8259 18.0148 20.6289 19.2119L19.3418 20.499C18.034 21.8065 15.8948 21.7002 13.8135 20.9365C12.2708 20.3705 10.6 19.3929 8.97655 18.083L13.8613 13.1982C13.9021 13.174 13.9419 13.147 13.9766 13.1123L14.2529 12.8359ZM4.28808 2.87109C5.48522 1.67406 7.42417 1.72984 8.61816 2.92382L10.6103 4.91601C11.8043 6.10999 11.8601 8.04895 10.6631 9.24609L10.3867 9.52245C10.1785 9.73069 10.1566 10.0687 10.3545 10.3086C10.7716 10.814 11.2191 11.3148 11.7021 11.7978C11.9443 12.04 12.191 12.2731 12.4404 12.498L7.83788 17.1006C7.59073 16.8733 7.34469 16.6396 7.10253 16.3975C4.93368 14.2286 3.35007 11.833 2.56249 9.68652C1.79878 7.60503 1.69325 5.46494 3.00097 4.15722L4.28808 2.87109Z" fill="#2B3F6C"/>
</svg>
