<svg width="24" height="24" viewBox="0 0 24 24" fill="none" xmlns="http://www.w3.org/2000/svg">
<path d="M11.1634 3.00254C8.49 1.99932 5.51 1.99932 2.83663 3.00254C1.90173 3.35338 1.25 4.22219 1.25 5.22919V19.0799C1.25 20.5948 2.83232 21.4933 4.16836 20.9919C5.98537 20.3101 8.01463 20.3101 9.83164 20.9919L11.7228 21.7016C11.8104 21.7345 11.905 21.7494 12 21.7471V3.3165L11.1634 3.00254Z" fill="#2B3F6C"/>
<path opacity="0.3" d="M12 21.7471C12.095 21.7494 12.1896 21.7345 12.2772 21.7016L14.1684 20.9919C15.9854 20.3101 18.0146 20.3101 19.8316 20.9919C21.1677 21.4933 22.75 20.5948 22.75 19.0799V5.22919C22.75 4.22219 22.0983 3.35338 21.1634 3.00254C18.49 1.99932 15.51 1.99932 12.8366 3.00254L12 3.3165V21.7471Z" fill="#2B3F6C"/>
</svg>
